# xmcd
#
# Track frame offsets: 
#        150
#        13655
#        25442
#        37706
#        53263
#        67106
#        80309
#        96306
#        107480
#        122167
#
# Disc length: 1792 seconds
#
# Revision: 0
# Processed by: cddbd v1.5.2PL0 Copyright (c) Steve Scherf et al.
# Submitted via: ExactAudioCopy v0.99pb3
#
DISCID=7306fe0a
DTITLE=Bill Kirchen and Too Much Fun - Bill Kirchen's Honky Tonk Holiday
DYEAR=1900
DGENRE=
TTITLE0=The Reindeer Boogie
TTITLE1=Truckin' Trees for Christmas
TTITLE2=Blue Christmas Lights
TTITLE3=Run Run Rudolph
TTITLE4=Silent Surfin' Night
TTITLE5=Daddy's Drinking Up Our Christmas
TTITLE6=Santa Claus Is Back In Town
TTITLE7=Santa Looked A Lot Like Daddy
TTITLE8=Santa! Don't Pass Me By
TTITLE9=(Mr. Claus') Word To The Wise
EXTD=
EXTT0=
EXTT1=
EXTT2=
EXTT3=
EXTT4=
EXTT5=
EXTT6=
EXTT7=
EXTT8=
EXTT9=
PLAYORDER=
